<svg width="285" height="224" viewBox="0 0 285 224" fill="none" xmlns="http://www.w3.org/2000/svg">
<g filter="url(#filter0_d_29_104)">
<path d="M31.3904 115.006C32.0805 115.358 32.8032 115.621 33.5584 115.797C34.3136 115.973 35.0167 116.061 35.6678 116.061C36.4165 116.061 36.9634 115.953 37.3084 115.739C37.66 115.524 37.8358 115.231 37.8358 114.86C37.8358 114.743 37.813 114.622 37.7674 114.498C37.7283 114.375 37.647 114.254 37.5233 114.137C37.4061 114.013 37.2401 113.893 37.0252 113.776C36.8169 113.652 36.5434 113.532 36.2049 113.414L34.4568 112.819C33.2068 112.389 32.2661 111.81 31.6346 111.08C31.0031 110.345 30.6873 109.472 30.6873 108.463C30.6873 107.812 30.824 107.187 31.0975 106.588C31.3709 105.983 31.7843 105.452 32.3377 104.996C32.8911 104.534 33.5877 104.166 34.4276 103.893C35.2739 103.62 36.2635 103.483 37.3963 103.483C37.9562 103.483 38.4933 103.515 39.0076 103.58C39.522 103.646 40.0037 103.73 40.4529 103.834C40.9087 103.939 41.3253 104.059 41.7029 104.196C42.0805 104.326 42.4126 104.456 42.699 104.586L41.6443 106.491C41.436 106.36 41.2147 106.246 40.9803 106.149C40.7524 106.051 40.5213 105.97 40.2869 105.905C40.0591 105.84 39.8345 105.791 39.6131 105.758C39.3917 105.726 39.1899 105.709 39.0076 105.709C38.6951 105.709 38.4217 105.752 38.1873 105.836C37.9529 105.914 37.7544 106.022 37.5916 106.159C37.4354 106.289 37.3149 106.439 37.2303 106.608C37.1522 106.771 37.1131 106.933 37.1131 107.096C37.1131 107.239 37.1457 107.379 37.2108 107.516C37.2824 107.646 37.3996 107.776 37.5623 107.907C37.7316 108.03 37.9497 108.157 38.2166 108.287C38.4901 108.411 38.8286 108.541 39.2322 108.678L40.4041 109.069C41.6736 109.492 42.6437 110.075 43.3143 110.817C43.9848 111.559 44.3201 112.457 44.3201 113.512C44.3201 114.228 44.1574 114.889 43.8318 115.495C43.5128 116.1 43.0343 116.624 42.3963 117.067C41.7583 117.503 40.964 117.845 40.0135 118.092C39.0695 118.333 37.9725 118.453 36.7225 118.453C36.1235 118.453 35.5441 118.421 34.9842 118.356C34.4308 118.297 33.8872 118.206 33.3533 118.082C32.826 117.959 32.3052 117.802 31.7908 117.614C31.2765 117.425 30.7622 117.203 30.2479 116.95L31.3904 115.006ZM47.035 103.717H51.0291L56.5174 111.315L61.7322 103.717H65.619V118.229H59.9842V110.817L54.574 118.414L49.1834 110.817V118.229H47.035V103.717ZM68.4901 110.944C68.4901 109.843 68.6658 108.838 69.0174 107.926C69.369 107.008 69.893 106.22 70.5897 105.563C71.2863 104.905 72.1554 104.394 73.1971 104.03C74.2387 103.665 75.4497 103.483 76.8299 103.483C78.2101 103.483 79.421 103.665 80.4627 104.03C81.5044 104.394 82.3735 104.905 83.0701 105.563C83.7667 106.22 84.2908 107.008 84.6424 107.926C84.994 108.838 85.1697 109.843 85.1697 110.944C85.1697 112.057 84.994 113.076 84.6424 114C84.2908 114.925 83.7667 115.716 83.0701 116.373C82.3735 117.031 81.5044 117.542 80.4627 117.907C79.421 118.271 78.2101 118.453 76.8299 118.453C75.4497 118.453 74.2387 118.271 73.1971 117.907C72.1554 117.542 71.2863 117.031 70.5897 116.373C69.893 115.716 69.369 114.925 69.0174 114C68.6658 113.076 68.4901 112.057 68.4901 110.944ZM76.8299 116.432C77.2205 116.432 77.5656 116.364 77.8651 116.227C78.1645 116.09 78.4152 115.823 78.617 115.426C78.8188 115.029 78.9718 114.472 79.076 113.756C79.1802 113.04 79.2322 112.103 79.2322 110.944C79.2322 109.798 79.1802 108.87 79.076 108.161C78.9718 107.451 78.8188 106.901 78.617 106.51C78.4152 106.12 78.1645 105.856 77.8651 105.719C77.5656 105.582 77.2205 105.514 76.8299 105.514C76.4393 105.514 76.091 105.582 75.785 105.719C75.4855 105.856 75.2348 106.12 75.033 106.51C74.8312 106.901 74.6782 107.451 74.574 108.161C74.4699 108.87 74.4178 109.798 74.4178 110.944C74.4178 112.103 74.4699 113.04 74.574 113.756C74.6782 114.472 74.8312 115.029 75.033 115.426C75.2348 115.823 75.4855 116.09 75.785 116.227C76.091 116.364 76.4393 116.432 76.8299 116.432ZM88.0311 103.717H93.6756V112.125L99.9549 103.717H102.777L98.1483 109.948L104.213 118.239H97.8553L94.6131 113.678L93.6756 114.967V118.229H88.0311V103.717ZM106.117 103.717H118.383V105.953H111.771L111.762 109.87H116.82V112.106H111.762V115.993H118.383V118.229H106.117V103.717ZM121.293 103.717H126.937V109.801H131.107V103.717H136.762L136.752 118.229H131.107V112.037H126.937V118.229H121.293V103.717ZM140.472 103.717H152.738V105.953H146.127L146.117 109.87H151.176V112.106H146.117V115.993H152.738V118.229H140.472V103.717ZM155.648 103.717H161.303L161.293 115.993H166.84V118.229H155.648V103.717ZM169.164 103.717H176.146C177.435 103.711 178.545 103.825 179.476 104.059C180.414 104.287 181.185 104.616 181.791 105.045C182.396 105.475 182.842 105.993 183.129 106.598C183.422 107.197 183.568 107.864 183.568 108.6C183.568 109.245 183.431 109.863 183.158 110.455C182.891 111.041 182.474 111.559 181.908 112.008C181.348 112.457 180.632 112.815 179.76 113.082C178.894 113.349 177.862 113.483 176.664 113.483H174.808V118.229H169.164V103.717ZM174.808 111.354C175.258 111.347 175.658 111.279 176.01 111.149C176.361 111.012 176.657 110.827 176.898 110.592C177.139 110.351 177.321 110.065 177.445 109.733C177.575 109.394 177.64 109.017 177.64 108.6C177.64 108.19 177.575 107.819 177.445 107.487C177.315 107.155 177.126 106.871 176.879 106.637C176.638 106.396 176.342 106.207 175.99 106.071C175.645 105.934 175.251 105.859 174.808 105.846V111.354ZM185.902 103.717H198.168V105.953H191.556L191.547 109.87H196.605V112.106H191.547V115.993H198.168V118.229H185.902V103.717ZM201.078 103.717H209.447C210.528 103.717 211.472 103.831 212.279 104.059C213.093 104.287 213.77 104.606 214.31 105.016C214.857 105.426 215.267 105.918 215.541 106.491C215.814 107.064 215.951 107.695 215.951 108.385C215.951 109.238 215.749 109.996 215.346 110.661C214.942 111.318 214.343 111.842 213.549 112.233L216.596 118.239H210.219L207.914 112.965H206.722V118.229H201.078V103.717ZM207.064 111.198C207.527 111.198 207.94 111.133 208.305 111.002C208.669 110.872 208.978 110.69 209.232 110.455C209.486 110.215 209.681 109.931 209.818 109.606C209.955 109.274 210.023 108.912 210.023 108.522C210.023 108.131 209.955 107.773 209.818 107.448C209.681 107.116 209.486 106.832 209.232 106.598C208.978 106.357 208.669 106.172 208.305 106.041C207.94 105.911 207.527 105.846 207.064 105.846H206.732L206.722 111.198H207.064Z" fill="#F5F1F2"/>
<path d="M223.283 130.72L236.445 134.066C248.398 137.106 260.772 131.413 267.317 119.864L267.536 119.478C272.307 111.058 272.145 100.289 267.122 92.052L266.598 91.1918C255.928 73.6939 235.661 67.0062 218.157 75.2076L207.542 80.1811L196.083 74.0797C180.767 65.9251 162.88 66.3921 147.924 75.3369L132.093 84.8053" stroke="#F5F1F2" stroke-width="4.00227" stroke-linecap="round"/>
</g>
<defs>
<filter id="filter0_d_29_104" x="-4" y="0" width="293" height="232" filterUnits="userSpaceOnUse" color-interpolation-filters="sRGB">
<feFlood flood-opacity="0" result="BackgroundImageFix"/>
<feColorMatrix in="SourceAlpha" type="matrix" values="0 0 0 0 0 0 0 0 0 0 0 0 0 0 0 0 0 0 127 0" result="hardAlpha"/>
<feOffset dy="4"/>
<feGaussianBlur stdDeviation="2"/>
<feComposite in2="hardAlpha" operator="out"/>
<feColorMatrix type="matrix" values="0 0 0 0 0 0 0 0 0 0 0 0 0 0 0 0 0 0 0.25 0"/>
<feBlend mode="normal" in2="BackgroundImageFix" result="effect1_dropShadow_29_104"/>
<feBlend mode="normal" in="SourceGraphic" in2="effect1_dropShadow_29_104" result="shape"/>
</filter>
</defs>
</svg>
